<svg xmlns="http://www.w3.org/2000/svg" version="1.1" xmlns:xlink="http://www.w3.org/1999/xlink" xmlns:svgjs="http://svgjs.com/svgjs" width="1000" height="1000"><rect width="1000" height="1000" rx="200" ry="200" fill="#fef3c7"></rect><g transform="matrix(8.52587603376247,0,0,8.52587603376247,239.10325496494113,150.00123733154936)"><svg xmlns="http://www.w3.org/2000/svg" version="1.1" xmlns:xlink="http://www.w3.org/1999/xlink" xmlns:svgjs="http://svgjs.com/svgjs" width="61.201" height="82.103"><svg width="61.201" height="82.103" viewBox="0 0 61.201 82.103" xmlns="http://www.w3.org/2000/svg">
  <g id="svgGroup" stroke-linecap="round" fill-rule="evenodd" font-size="9pt" stroke="#000" stroke-width="0.25mm" fill="black" style="stroke:#000;stroke-width:0.25mm;fill:black">
    <path d="M 40.3 38.202 L 27.9 34.102 Q 21.4 31.902 18.8 28.802 Q 16.2 25.702 16.2 22.102 Q 16.2 19.002 17.65 16.302 Q 19.061 13.676 22.364 11.995 A 16.377 16.377 0 0 1 22.55 11.902 Q 25.08 10.655 28.874 10.323 A 33.58 33.58 0 0 1 31.8 10.202 Q 37.7 10.202 42.4 13.202 Q 47.1 16.202 49.9 22.102 L 45.9 25.002 Q 44.1 20.202 40.3 17.602 Q 36.5 15.002 31.8 15.002 A 26.007 26.007 0 0 0 28.952 15.147 Q 26.042 15.469 24.285 16.506 A 6.237 6.237 0 0 0 23.5 17.052 A 7.25 7.25 0 0 0 21.887 18.865 A 6.08 6.08 0 0 0 21 22.102 Q 21 26.184 27.615 28.849 A 31.124 31.124 0 0 0 29.4 29.502 L 41.8 33.602 A 39.727 39.727 0 0 1 48.889 36.656 A 28.932 28.932 0 0 1 55.95 42.102 A 19.048 19.048 0 0 1 60.782 51.944 A 27.02 27.02 0 0 1 61.2 56.802 A 30.324 30.324 0 0 1 60.284 64.471 A 21.121 21.121 0 0 1 53.45 75.502 Q 47.011 80.986 36.051 81.913 A 55.179 55.179 0 0 1 31.4 82.102 A 44.803 44.803 0 0 1 22.572 81.278 Q 16.875 80.133 12.385 77.398 A 27.657 27.657 0 0 1 11.3 76.702 Q 3.3 71.302 0 61.702 L 3.6 59.302 Q 7.069 67.108 12.155 71.309 A 21.643 21.643 0 0 0 15 73.302 A 29.666 29.666 0 0 0 25.759 77.002 A 38.475 38.475 0 0 0 31.4 77.402 A 42.992 42.992 0 0 0 38.554 76.845 Q 42.417 76.192 45.507 74.774 A 20.38 20.38 0 0 0 49.85 72.102 Q 56.4 66.802 56.4 56.802 A 19.912 19.912 0 0 0 55.774 51.674 A 14.402 14.402 0 0 0 51.95 45.002 A 26.204 26.204 0 0 0 45.791 40.533 A 35.633 35.633 0 0 0 40.3 38.202 Z M 32.7 49.002 L 21.4 45.002 A 46.306 46.306 0 0 1 15.565 42.47 Q 12.646 40.939 10.415 39.123 A 22.692 22.692 0 0 1 7.95 36.802 A 16.706 16.706 0 0 1 4.18 29.672 Q 3.504 27.099 3.414 24.048 A 32.128 32.128 0 0 1 3.4 23.102 Q 3.4 16.802 6.7 11.552 A 22.466 22.466 0 0 1 13.583 4.659 A 28.172 28.172 0 0 1 16.2 3.152 A 27.851 27.851 0 0 1 23.493 0.694 Q 26.746 0.056 30.466 0.006 A 47.307 47.307 0 0 1 31.1 0.002 A 44.776 44.776 0 0 1 41.385 1.096 Q 47.883 2.631 52.349 6.322 A 24.057 24.057 0 0 1 59.1 15.502 L 55.3 18.202 A 30.72 30.72 0 0 0 52.344 13.377 Q 50.407 10.819 48.12 9.164 A 16.024 16.024 0 0 0 45.25 7.502 Q 39.2 4.802 31.1 4.802 A 34.536 34.536 0 0 0 25.261 5.271 Q 21.747 5.874 18.85 7.252 A 21.402 21.402 0 0 0 14.331 10.101 A 17.281 17.281 0 0 0 10.95 13.852 Q 8.2 18.002 8.2 23.102 A 20.733 20.733 0 0 0 8.639 27.502 Q 9.252 30.323 10.72 32.447 A 12.02 12.02 0 0 0 12 34.002 A 21.483 21.483 0 0 0 15.893 37.114 Q 17.862 38.364 20.308 39.433 A 44.322 44.322 0 0 0 23 40.502 L 34.3 44.502 A 42.338 42.338 0 0 1 38.139 46.065 Q 42.649 48.187 44.6 50.752 Q 47.3 54.302 47.3 58.802 A 12.926 12.926 0 0 1 46.404 63.682 A 11.957 11.957 0 0 1 43.6 67.802 A 10.748 10.748 0 0 1 39.962 70.065 Q 36.541 71.402 31.3 71.402 A 20.46 20.46 0 0 1 21.393 68.795 A 25.909 25.909 0 0 1 19.2 67.452 A 23.852 23.852 0 0 1 13.75 62.222 Q 11.441 59.222 9.6 55.202 L 13.7 52.402 A 27.072 27.072 0 0 0 16.643 58.035 A 21.192 21.192 0 0 0 21.2 62.852 A 19.878 19.878 0 0 0 25.349 65.332 A 14.81 14.81 0 0 0 31.3 66.602 A 25.442 25.442 0 0 0 34.317 66.436 Q 37.859 66.012 39.8 64.502 A 6.717 6.717 0 0 0 42.465 59.599 A 8.965 8.965 0 0 0 42.5 58.802 Q 42.5 55.602 40.3 53.252 A 10.526 10.526 0 0 0 38.512 51.758 Q 36.635 50.487 33.692 49.365 A 41.034 41.034 0 0 0 32.7 49.002 Z" vector-effect="non-scaling-stroke"></path>
  </g>
</svg></svg></g></svg>